
<svg xmlns="http://www.w3.org/2000/svg" xmlns:xlink="http://www.w3.org/1999/xlink" xml:space="preserve" version="1.1" style="shape-rendering:geometricPrecision;text-rendering:geometricPrecision;image-rendering:optimizeQuality;" viewBox="0 0 267 258.75" x="0px" y="0px" fill-rule="evenodd" clip-rule="evenodd"><defs><style type="text/css">
   
    .fil2 {fill:none}
    .fil1 {fill:black}
    .fil0 {fill:black}
   
  </style></defs><g><path class="fil0" d="M216 106c-27,0 -50,23 -50,50 0,28 23,51 50,51 28,0 51,-23 51,-51 0,-27 -23,-50 -51,-50zm0 8c-23,0 -42,19 -42,42 0,24 19,43 42,43 24,0 43,-19 43,-43 0,-23 -19,-42 -43,-42z"/><path class="fil0" d="M208 149c-2,2 -3,4 -3,7 0,7 5,12 11,12 7,0 12,-5 12,-12 0,-5 -4,-9 -9,-11l-36 -124c3,-3 5,-8 4,-12 -2,-7 -9,-10 -15,-9 -7,2 -10,9 -8,15 1,5 4,8 9,9l9 34c-29,0 -54,6 -75,16l-2 -2c5,-3 12,-7 19,-12 11,-8 -9,-14 -48,-2 -12,3 -8,26 18,18 0,2 1,2 1,3l2 1 -2 1c-22,15 -38,36 -47,64 -5,2 -9,6 -9,11 0,7 5,12 11,12 6,0 11,-5 11,-12 0,-3 -1,-5 -3,-7 9,-26 24,-45 43,-58 3,-2 5,-3 7,-5l1 0c20,-11 46,-17 76,-17l23 80zm-86 -93c0,0 0,1 0,1 -45,33 -55,8 -45,5 6,-2 38,-10 45,-6z"/><path class="fil1" d="M216 153c-1,0 -3,1 -3,3 0,2 2,4 3,4 2,0 4,-2 4,-4 0,-2 -2,-3 -4,-3z"/><path class="fil2" d="M216 156c-28,-99 -42,-149 -42,-149"/><path class="fil2" d="M50 156c18,-63 64,-94 140,-93"/><path class="fil0" d="M50 106c-28,0 -50,23 -50,50 0,28 22,51 50,51 28,0 50,-23 50,-51 0,-27 -22,-50 -50,-50zm0 8c-23,0 -42,19 -42,42 0,24 19,43 42,43 24,0 43,-19 43,-43 0,-23 -19,-42 -43,-42z"/></g></svg>